<svg width="91" height="48" viewBox="0 0 91 48" fill="none" xmlns="http://www.w3.org/2000/svg">
<path d="M3 45L11.9091 41.1024C12.4369 40.8715 12.8395 40.4242 13.0138 39.8751L21.4583 13.2674C22.0486 11.4074 24.6806 11.4074 25.2709 13.2674L32.5308 36.1428C33.0658 37.8283 35.3751 38.0176 36.1774 36.4418V36.4418C36.6783 35.4579 37.8878 35.0749 38.8638 35.5909L47.1878 39.9929C48.0132 40.4294 49.0309 40.2367 49.6395 39.5286L76.0034 8.85656C76.7494 7.98869 78.0702 7.92257 78.8991 8.7116L81.1717 10.8749C82.1455 11.8018 83.7382 11.5232 84.3395 10.3207L88 3" stroke="#8FB671" stroke-width="4.5" stroke-linecap="round" stroke-linejoin="round"/>
</svg>
